<?xml version="1.0" encoding="UTF-8"?>
<svg width="480px" height="100px" viewBox="0 0 480 100" version="1.1" xmlns="http://www.w3.org/2000/svg" xmlns:xlink="http://www.w3.org/1999/xlink">
    <title>logo</title>
    <g id="logo" stroke="none" stroke-width="1" fill="none" fill-rule="evenodd">
        <g id="编组" transform="translate(8.304348, 5.000000)" fill-rule="nonzero">
            <g>
                <g id="admin9" transform="translate(117.826087, 14.000000)" fill="#1F1F1F">
                    <path d="M16.5662651,76 C11.5461847,76 7.53012048,74.601137 4.51807229,71.8034111 C1.5060241,69.0056852 0,65.3686415 0,60.8922801 C0,59.9048474 0.0334672021,59.1478157 0.100401606,58.6211849 C0.702811245,54.5397965 1.77376171,51.2977259 3.31325301,48.8949731 C4.85274431,46.4922202 7.07831325,44.7477558 9.98995984,43.6615799 C12.9016064,42.5754039 16.7336011,42.032316 21.4859438,42.032316 L38.3534137,42.032316 L38.4538153,41.2423698 C38.5207497,40.9132256 38.5542169,40.4524237 38.5542169,39.8599641 C38.5542169,37.2926391 37.6840696,35.2190305 35.9437751,33.6391382 C34.2034806,32.059246 31.4926372,31.2692998 27.811245,31.2692998 L25.2008032,31.2692998 C19.2436412,31.2692998 13.8888889,31.4338719 9.13654618,31.7630162 L10.6425703,21.6912029 L13.5542169,21.4937163 C14.6251673,21.4278875 16.5160643,21.3291442 19.2269076,21.1974865 C21.937751,21.0658288 24.2971888,21 26.3052209,21 L29.0160643,21 C35.9103079,21 41.1311914,22.6128067 44.6787149,25.8384201 C48.2262383,29.0640335 50,33.3758229 50,38.7737882 C50,39.3662478 49.9330656,40.3865949 49.7991968,41.8348294 L45.6827309,76 L16.5662651,76 Z M11.5461847,59.8061041 C11.5461847,61.7151406 12.0983936,63.1798324 13.2028112,64.2001795 C14.3072289,65.2205266 15.896921,65.7307002 17.9718876,65.7307002 L35.4417671,65.7307002 L37.1485944,51.9066427 L20.4819277,51.8078995 C17.9384203,51.7420706 15.9136546,52.2193297 14.4076305,53.2396768 C12.9016064,54.2600239 11.9812584,56.05386 11.6465863,58.6211849 L11.5461847,59.8061041 Z" id="形状"></path>
                    <path d="M58.195572,44.8508431 C60.1217712,29.0134025 68.6900369,21.0946822 83.900369,21.0946822 L96.9520295,21.0946822 L99.5424354,0 L111,0 L101.634686,76 L77.6236162,76 C63.8745387,76 57,69.7570255 57,57.2710765 C57,55.7596195 57.099631,54.1167315 57.298893,52.3424125 L58.195572,44.8508431 Z M91.4723247,65.4526589 L95.6568266,31.4448768 L82.6051661,31.4448768 C75.099631,31.4448768 70.8154982,35.8149589 69.7527675,44.5551232 L68.7564576,52.6381323 C68.6236162,53.9524427 68.5571956,54.9053178 68.5571956,55.4967575 C68.5571956,62.1340251 72.0110701,65.4526589 78.9188192,65.4526589 L91.4723247,65.4526589 Z" id="形状"></path>
                    <path d="M166.495808,31.5655296 L161.128144,76 L149.697006,76 L155.164072,31.5655296 L132.798802,31.5655296 L127.431138,76 L116,76 L122.759281,21 L178.423952,21 C192.141317,21 199,27.2537403 199,39.7612208 C199,41.2752843 198.900599,42.9210054 198.701796,44.6983842 L194.82515,76 L183.394012,76 L187.270659,44.4021544 C187.403194,43.0855775 187.469461,42.1639737 187.469461,41.6373429 C187.469461,34.9228007 184.023553,31.5655296 177.131737,31.5655296 L166.495808,31.5655296 Z" id="路径"></path>
                    <path d="M214.060465,13.8085106 L215.595349,2 L229,2 L227.465116,13.8085106 L214.060465,13.8085106 Z M218.767442,76 L207,76 L214.060465,21.1888298 L225.827907,21.1888298 L218.767442,76 Z" id="形状"></path>
                    <path d="M248.707224,31.5655296 L243.368821,76 L232,76 L238.722433,21 L263.536122,21 C277.178707,21 284,27.2537403 284,39.7612208 C284,41.2752843 283.901141,42.9210054 283.703422,44.6983842 L279.847909,76 L268.479087,76 L272.334601,44.4021544 C272.466413,43.0855775 272.532319,42.1639737 272.532319,41.6373429 C272.532319,34.9228007 269.105196,31.5655296 262.250951,31.5655296 L248.707224,31.5655296 Z" id="路径"></path>
                    <path d="M306.111111,65.1304348 C313.584656,65.1304348 319.487434,63.6152833 323.819444,60.5849802 C328.151455,57.5546772 330.648148,52.6139657 331.309524,45.7628458 L331.607143,45.0711462 C328.895503,46.5862978 324.728836,47.3438735 319.107143,47.3438735 L313.055556,47.3438735 C307.103175,47.2779974 302.60582,45.9440053 299.563492,43.3418972 C296.521164,40.7397892 295,36.6389987 295,31.0395257 C295,29.7878788 295.033069,28.7997365 295.099206,28.0750988 L295.595238,22.8379447 C296.388889,14.8669302 298.835979,9.2345191 302.936508,5.94071146 C307.037037,2.64690382 312.890212,1 320.496032,1 L323.075397,1 C330.747354,1 336.319444,2.54808959 339.791667,5.64426877 C343.263889,8.74044796 345,13.9776021 345,21.3557312 C345,24.2542819 344.834656,26.9552042 344.503968,29.458498 L342.718254,43.7865613 C341.329365,54.458498 337.559524,62.4953887 331.40873,67.8972332 C325.257937,73.2990777 316.395503,76 304.821429,76 C302.374339,76 299.431217,75.8682477 295.992063,75.6047431 L297.281746,64.6363636 C300.522487,64.9657444 303.465608,65.1304348 306.111111,65.1304348 Z M306.111111,26.9881423 C305.846561,30.3478261 306.458333,32.8511199 307.946429,34.4980237 C309.434524,36.1449275 312.063492,36.9683794 315.833333,36.9683794 L322.579365,36.9683794 C326.283069,36.9025033 329.011243,36.0296443 330.763889,34.3498024 C332.516534,32.6699605 333.558201,30.1831357 333.888889,26.8893281 L334.186508,24.2213439 C334.252646,23.5625823 334.285714,22.6732543 334.285714,21.5533597 C334.285714,18.9841897 333.905423,17.0079051 333.144841,15.6245059 C332.384259,14.2411067 331.111111,13.2694335 329.325397,12.7094862 C327.539683,12.1495389 324.993386,11.8695652 321.686508,11.8695652 C318.048942,11.8695652 315.188492,12.215415 313.105159,12.9071146 C311.021825,13.5988142 309.484127,14.7351779 308.492063,16.3162055 C307.5,17.8972332 306.838624,20.0711462 306.507937,22.8379447 L306.111111,26.9881423 Z" id="形状"></path>
                </g>
                <g fill="#F53003" id="icon">
                    <path d="M92.826087,41.0869565 L76.4130435,41.0869565 C73.6516197,41.0869565 71.4130435,43.3255328 71.4130435,46.0869565 L71.4130435,85 C71.4130435,87.7614237 73.6516197,90 76.4130435,90 L92.826087,90 C95.5875107,90 97.826087,87.7614237 97.826087,85 L97.826087,46.0869565 C97.826087,43.3255328 95.5875107,41.0869565 92.826087,41.0869565 Z M32.8714047,90 L0,90 L49.307107,0 L82.173913,0 L32.8714047,89.9954187 L32.8714047,90 Z" id="形状"></path>
                </g>
            </g>
        </g>
    </g>
</svg>